<svg width="409" height="306" viewBox="0 0 409 306" fill="none" xmlns="http://www.w3.org/2000/svg">
<rect y="189" width="129" height="54" rx="14" fill="#F7463C"/>
<rect x="140" y="189" width="129" height="54" rx="14" fill="#F7463C"/>
<rect x="280" y="189" width="129" height="54" rx="14" fill="#F7463C"/>
<rect x="280" y="189" width="129" height="54" rx="14" fill="#F7463C"/>
<rect y="63" width="129" height="54" rx="14" fill="#F7463C"/>
<rect x="63" y="126" width="129" height="54" rx="14" fill="#F7463C"/>
<rect x="206" y="126" width="129" height="54" rx="14" fill="#F7463C"/>
<rect x="63" y="252" width="129" height="54" rx="14" fill="#F7463C"/>
<rect x="59" width="129" height="54" rx="14" fill="#F7463C"/>
<rect x="206" width="129" height="54" rx="14" fill="#F7463C"/>
<rect x="215" y="252" width="129" height="54" rx="14" fill="#F7463C"/>
<rect x="139" y="63" width="129" height="54" rx="14" fill="#F7463C"/>
<rect x="279" y="63" width="129" height="54" rx="14" fill="#F7463C"/>
</svg>
